<?xml version="1.0" encoding="UTF-8" standalone="no"?>
<svg
   xmlns:dc="http://purl.org/dc/elements/1.1/"
   xmlns:cc="http://creativecommons.org/ns#"
   xmlns:rdf="http://www.w3.org/1999/02/22-rdf-syntax-ns#"
   xmlns:svg="http://www.w3.org/2000/svg"
   xmlns="http://www.w3.org/2000/svg"
   xmlns:sodipodi="http://sodipodi.sourceforge.net/DTD/sodipodi-0.dtd"
   xmlns:inkscape="http://www.inkscape.org/namespaces/inkscape"
   width="1.5790225in"
   height="0.63169622in"
   version="1.1"
   id="svg12"
   sodipodi:docname="logo.svg"
   inkscape:version="0.92.4 (5da689c313, 2019-01-14)">
  <metadata
     id="metadata18">
    <rdf:RDF>
      <cc:Work
         rdf:about="">
        <dc:format>image/svg+xml</dc:format>
        <dc:type
           rdf:resource="http://purl.org/dc/dcmitype/StillImage" />
      </cc:Work>
    </rdf:RDF>
  </metadata>
  <defs
     id="defs16" />
  <sodipodi:namedview
     pagecolor="#ffffff"
     bordercolor="#666666"
     borderopacity="1"
     objecttolerance="10"
     gridtolerance="10"
     guidetolerance="10"
     inkscape:pageopacity="0"
     inkscape:pageshadow="2"
     inkscape:window-width="640"
     inkscape:window-height="480"
     id="namedview14"
     showgrid="false"
     inkscape:zoom="1.4013895"
     inkscape:cx="101.268"
     inkscape:cy="19.984687"
     inkscape:window-x="0"
     inkscape:window-y="0"
     inkscape:window-maximized="0"
     inkscape:current-layer="svg12" />
  <path
     d="m 150.782,36.888148 c -2.971,11.19 -9.466,17.915 -19.624,21.935 -3.38,1.338 -9.759,2.44 -14.448,1.421 -2.311,-0.503 -4.495,-0.903 -6.485,-1.705 -4.321,-1.742 -7.907,-4.225 -10.921,-7.274 0,-0.265 0,-0.53 0,-0.796 0.19,-0.159 0.38,-0.342 0.569,-0.511 1.159,-0.099 1.671,0.893 2.332,1.478 1.109,0.979 2.338,1.897 3.584,2.727 2.584,1.722 5.649,2.906 9.044,3.808 0.996,0.264 1.934,0.242 3.015,0.454 1.678,0.33 4.324,0.471 6.143,0.114 1.918,-0.377 3.754,-0.533 5.461,-1.08 8.627,-2.763 14.562,-8.429 17.974,-16.423 1.421,-3.328 2.965,-9.608 1.934,-14.548 -0.446,-2.138 -0.743,-4.178 -1.479,-6.023 -1.698,-4.262 -4.047,-7.441 -6.826,-10.5700001 -0.072,-0.716 0.146,-0.899 0.569,-1.25 1.711,0.009 3.672,3.3210001 4.494,4.4890001 3.67,5.217 7.065,14.711 4.664,23.754 z m -4.152,-10.968 c 0.514,2.243 0.545,5.638 0.057,7.899 -0.261,1.209 -0.287,2.26 -0.626,3.353 -1.238,3.988 -3.052,7.837 -5.859,10.286 -0.625,0.029 -0.972,-0.089 -1.137,-0.512 -0.111,-0.164 -0.12,-0.385 -0.114,-0.682 2.48,-2.893 4.413,-6.231 5.517,-10.513 0.313,-1.213 0.337,-2.503 0.569,-3.807 0,-0.512 0,-1.023 0,-1.535 0.181,-1.209 -0.021,-3.047 -0.284,-4.205 -0.36,-1.586 -0.688,-3.141 -1.252,-4.546 -0.841,-2.096 -1.939,-4.028 -3.185,-5.739 -0.612,-0.841 -2.133,-1.869 -2.162,-3.126 0.199,-0.23 0.351,-0.419 0.569,-0.625 0.076,-0.019 0.152,-0.038 0.228,-0.057 0.17,0.038 0.341,0.076 0.512,0.114 1.174,0.459 3.25,3.917 3.981,5.114 1.513,2.476 2.431,5.287 3.186,8.581 z m -40.728,-8.638 c -0.33,-0.104 -0.375,-0.284 -0.568,-0.511 -0.084,-1.377 1.629,-2.349 2.502,-3.012 2.101,-1.595 4.333,-2.966 7.168,-3.8640001 1.023,-0.227 2.047,-0.455 3.071,-0.682 0.531,-0.057 1.062,-0.114 1.593,-0.17 11.126,-0.196 17.958,5.5140001 21.217,13.1270001 3.241,7.57 0.938,17.626 -3.698,21.935 -0.298,0.033 -0.513,0.083 -0.739,-0.057 -0.239,-0.088 -0.366,-0.215 -0.455,-0.455 -0.245,-0.376 -0.03,-0.869 0.171,-1.136 0.696,-0.926 1.469,-1.835 2.047,-2.898 1.691,-3.108 3.13,-8.331 1.991,-13.127 -1.708,-7.192 -5.906,-11.672 -12.229,-14.264 -3.292,-1.349 -8.713,-1.653 -12.457,-0.455 -3.766,1.206 -6.322,3.305 -8.931,5.626 -0.29,0.03 -0.463,0.078 -0.683,-0.057 z m 3.755,8.752 c 1.379,-3.452 3.826,-5.896 7.28,-7.274 0.835,-0.208 1.669,-0.417 2.503,-0.625 0.417,-0.038 0.835,-0.076 1.252,-0.114 6.17,-0.104 9.975,3.302 11.774,7.615 1.129,2.706 1.168,6.699 0,9.433 -1.414,3.311 -4.152,5.791 -7.736,6.933 -0.945,0.301 -1.991,0.309 -3.071,0.512 -1.901,0.356 -4.335,-0.624 -5.518,-1.137 -4.636,-2.011 -9.23,-8.472 -6.484,-15.343 z m 12.514,14.548 c 4.12,-0.76 7.015,-2.711 8.475,-6.081 0.325,-0.75 0.554,-1.59 0.739,-2.444 0.462,-2.12 -0.126,-4.426 -0.739,-5.853 -1.671,-3.887 -4.85,-6.267 -10.466,-6.251 -0.379,0.057 -0.759,0.114 -1.138,0.171 -0.701,0.227 -1.403,0.454 -2.105,0.682 -2.754,1.186 -4.815,3.632 -5.745,6.648 -1.877,6.093 2.444,11.056 6.485,12.502 1.093,0.392 2.812,0.936 4.494,0.626 z m 2.958,-24.663 c -0.818,-0.256 -1.571,-0.224 -2.503,-0.398 -1.564,-0.292 -3.583,-0.079 -4.949,0.284 -2.887,0.767 -5.022,2.146 -6.94,3.864 -0.29,0.03 -0.463,0.078 -0.682,-0.057 -0.331,-0.104 -0.375,-0.284 -0.569,-0.511 -0.076,-1.25 0.983,-1.708 1.763,-2.273 1.589,-1.15 3.34,-2.08 5.461,-2.728 0.758,-0.151 1.517,-0.303 2.275,-0.454 0.379,-0.038 0.759,-0.076 1.138,-0.114 9.172,-0.164 14.938,5.086 17.121,11.877 0.19,0.871 0.38,1.742 0.569,2.614 0.484,2.282 -0.02,5.151 -0.569,6.876 -1.685,5.301 -4.861,8.799 -9.783,10.854 -1.844,0.769 -4.413,1.536 -7.111,1.193 -0.307,-0.347 -0.518,-0.434 -0.512,-1.136 0.806,-1.09 1.285,-0.452 2.788,-0.739 1.46,-0.279 2.816,-0.46 4.038,-0.966 4.879,-2.02 7.973,-5.799 9.215,-11.479 0.562,-2.57 -0.049,-5.647 -0.796,-7.501 -1.864,-4.627 -5.018,-7.663 -9.954,-9.206 z m 12.343,-5.626 c -1.826,1.054 -3.973,-0.4870001 -5.063,-1.1370001 -2.269,-1.353 -4.87,-1.881 -7.906,-2.5 -0.809,-0.165 -2.697,-0.463 -3.641,-0.284 -0.853,0.057 -1.706,0.113 -2.559,0.17 -1.879,0.379 -3.678,0.61 -5.29,1.25 -7.29,2.8980001 -12.305,7.9770001 -14.733,15.7410001 -0.854,2.732 -1.486,7.05 -0.739,10.457 2.266,10.336 8.219,16.91 18.145,19.548 5.532,1.47 12.137,0.13 16.041,-1.875 1.233,-0.634 3.482,-1.29 3.47,-3.126 -0.218,-0.271 -0.276,-0.591 -0.626,-0.738 -0.901,-0.59 -3.378,1.252 -4.039,1.591 -2.489,1.275 -7.96,2.828 -12.059,1.989 -9.92,-2.032 -15.667,-7.278 -18.145,-16.708 -1.016,-3.866 -0.203,-8.949 0.967,-11.876 0.5,-1.251 0.924,-2.408 1.991,-3.069 2.102,-1.302 5.227,0.371 4.664,3.182 -0.335,1.671 -1.018,2.969 -1.422,4.66 -0.756,3.171 0.167,6.756 1.138,8.979 1.173,2.685 3.36,4.927 5.745,6.421 1.159,0.727 2.923,1.037 3.811,2.046 0.027,0.279 0.073,0.46 -0.057,0.682 -0.105,0.33 -0.285,0.375 -0.512,0.568 -1.599,0.086 -3.919,-1.506 -5.005,-2.273 -3.16,-2.231 -5.384,-5.14 -6.656,-9.263 -0.327,-1.061 -0.346,-2.228 -0.568,-3.409 -0.386,-2.05 0.468,-5.401 0.967,-6.763 0.24,-0.657 1.034,-1.813 0.568,-2.727 -0.183,-0.517 -0.689,-0.653 -1.422,-0.626 -2.47,2.183 -3.448,9.001 -2.275,13.412 1.972,7.416 6.765,12.334 14.05,14.434 3.975,1.145 9.26,0.429 12.4,-0.91 1.562,-0.666 2.796,-1.822 4.494,-2.273 2.48,-0.657 4.68,1.729 3.697,4.092 -0.697,1.676 -2.46,2.431 -4.039,3.239 -3.999,2.047 -10.63,3.82 -16.666,2.387 -10.291,-2.443 -16.89,-8.715 -19.909,-18.412 -1.312,-4.215 -1.126,-10.63 0.285,-14.548 2.839,-7.884 7.581,-13.2290001 15.13,-16.3660001 1.812,-0.753 3.793,-1.076 5.916,-1.534 0.853,-0.076 1.707,-0.152 2.56,-0.228 1.116,-0.217 2.7,-0.018 3.64,0.171 0.778,0.095 1.555,0.189 2.332,0.284 2.01,0.475 3.988,0.992 5.689,1.818 1.244,0.605 3.104,2.216 4.778,1.819 0.374,-0.505 0.574,-0.774 0.455,-1.534 -2.744,-2.344 -6.234,-3.64 -10.353,-4.66 -1.118,-0.152 -2.237,-0.303 -3.356,-0.455 -1.834,-0.349 -4.822,-0.048 -6.371,0.284 -1.308,0.281 -2.078,0.532 -2.844,-0.341 -0.027,-0.567 0.071,-0.92400001 0.455,-1.07900001 0.874,-0.651 2.874,-0.52 4.096,-0.739 0.284,-0.019 0.569,-0.038 0.853,-0.057 7.405,-0.133 12.517,1.60200001 17.122,4.20500001 2.133,1.207 3.667,4.423 0.796,6.0810001 z M 109.429,4.3831479 c -1.634,0.716 -3.255,1.679 -4.664,2.671 -5.648,3.9710001 -9.331,9.4840001 -11.32,17.1610001 -0.861,3.324 -0.978,8.413 -0.113,11.877 0.769,3.085 1.73,5.932 3.185,8.354 0.541,0.9 2.073,2.483 2.105,3.637 -0.157,0.233 -0.179,0.445 -0.455,0.568 -0.281,0.234 -0.675,0.153 -1.024,0.057 -2.03,-2.979 -3.821,-5.973 -5.063,-9.831 -0.555,-1.725 -0.696,-3.585 -1.081,-5.513 -0.019,-0.492 -0.037,-0.985 -0.057,-1.477 0,-1.08 0,-2.16 0,-3.239 0.057,-0.815 0.114,-1.629 0.171,-2.444 0.37,-1.774 0.693,-3.508 1.195,-5.057 2.379,-7.353 6.824,-12.8420001 12.798,-16.5940001 1.466,-0.921 3.129,-1.753 4.778,-2.443 0.455,-0.152 0.91,-0.303 1.365,-0.455 0.623,0.184 0.985,0.368 0.967,1.193 -0.038,0.095 -0.076,0.19 -0.113,0.285 -0.781,0.535 -1.729,0.836 -2.674,1.25 z"
     id="path2"
     inkscape:connector-curvature="0"
     style="fill:#3699FF;fill-rule:evenodd" />
  <path
     d="m 114.549,26.716148 c 0.729,-1.042 1.461,-1.402 2.616,-1.591 1.214,-0.018 2.076,0.15 2.787,0.625 0.424,0.283 0.573,0.588 1.064,1.035 2.168,-3.114 8.173,-1.484 7.241,3.227 -0.568,2.867 -2.585,4.59 -4.607,6.023 -0.748,0.53 -1.677,1.445 -2.674,1.648 -0.72,-0.435 -1.441,-0.871 -2.161,-1.307 -2.211,-1.483 -6.949,-5.831 -4.266,-9.66 z"
     id="path4"
     inkscape:connector-curvature="0"
     style="fill:#F64E60;fill-rule:evenodd" />
  <path
     d="m 84.169,46.254148 c -0.164,0 -0.316,0.03 -0.456,0.091 -0.139,0.061 -0.261,0.146 -0.364,0.255 -0.103,0.11 -0.184,0.24 -0.241,0.392 -0.058,0.152 -0.087,0.322 -0.087,0.51 v 1.613 h 1.858 v 0.665 h -4.353 v -0.665 h 1.685 v -1.649 c 0,-0.286 0.047,-0.544 0.143,-0.775 0.095,-0.23 0.225,-0.428 0.391,-0.592 0.166,-0.164 0.356,-0.29 0.572,-0.378 0.216,-0.088 0.448,-0.132 0.697,-0.132 h 1.885 v 0.665 z m -8.259,1.795 c 0,0.14 0.024,0.273 0.073,0.401 0.048,0.127 0.118,0.24 0.209,0.337 0.09,0.097 0.205,0.176 0.345,0.237 0.139,0.06 0.299,0.091 0.481,0.091 h 2.216 v 0.665 h -2.377 c -0.237,0 -0.463,-0.043 -0.678,-0.128 -0.216,-0.085 -0.402,-0.206 -0.56,-0.364 -0.158,-0.158 -0.284,-0.346 -0.378,-0.565 -0.094,-0.219 -0.141,-0.462 -0.141,-0.729 v -0.61 c 0,-0.268 0.048,-0.512 0.146,-0.734 0.097,-0.221 0.227,-0.411 0.391,-0.569 0.164,-0.158 0.352,-0.279 0.565,-0.365 0.212,-0.085 0.431,-0.127 0.655,-0.127 h 1.457 c 0.237,0 0.461,0.042 0.674,0.127 0.212,0.086 0.399,0.207 0.56,0.365 0.161,0.158 0.288,0.348 0.382,0.569 0.094,0.222 0.141,0.469 0.141,0.743 v 0.51 H 75.91 Z m 0.018,-0.684 h 3.315 v -0.109 c 0,-0.279 -0.1,-0.516 -0.3,-0.71 -0.2,-0.195 -0.46,-0.292 -0.781,-0.292 h -0.99 c -0.109,0 -0.218,0.009 -0.327,0.027 -0.278,0.043 -0.5,0.16 -0.667,0.351 -0.166,0.191 -0.25,0.409 -0.25,0.651 z m -4.447,2.319 c -0.252,-0.064 -0.471,-0.168 -0.656,-0.314 -0.185,-0.146 -0.329,-0.334 -0.432,-0.565 -0.104,-0.231 -0.155,-0.51 -0.155,-0.838 v -1.349 h -1.075 v -0.61 h 1.075 v -1.476 h 0.81 v 1.476 h 3.032 v 0.61 h -3.032 v 1.294 c 0,0.437 0.123,0.747 0.369,0.929 0.246,0.183 0.605,0.274 1.079,0.274 h 1.666 v 0.665 h -1.857 c -0.298,0 -0.573,-0.032 -0.824,-0.096 z m -3.92,-2.218 c 0,-0.189 -0.032,-0.357 -0.096,-0.506 -0.063,-0.149 -0.147,-0.276 -0.25,-0.383 -0.103,-0.106 -0.225,-0.186 -0.364,-0.241 -0.14,-0.055 -0.286,-0.082 -0.437,-0.082 h -2.386 v 3.526 h -0.81 v -4.191 h 3.36 c 0.26,0 0.502,0.044 0.723,0.132 0.222,0.088 0.412,0.214 0.569,0.378 0.158,0.164 0.281,0.362 0.369,0.592 0.088,0.231 0.132,0.489 0.132,0.775 v 2.314 h -0.81 z m -9.588,0.583 c 0,0.14 0.024,0.273 0.073,0.401 0.048,0.127 0.118,0.24 0.209,0.337 0.09,0.097 0.205,0.176 0.345,0.237 0.139,0.06 0.299,0.091 0.481,0.091 h 2.216 v 0.665 H 58.92 c -0.237,0 -0.463,-0.043 -0.678,-0.128 -0.216,-0.085 -0.402,-0.206 -0.56,-0.364 -0.158,-0.158 -0.284,-0.346 -0.378,-0.565 -0.094,-0.219 -0.141,-0.462 -0.141,-0.729 v -0.61 c 0,-0.268 0.048,-0.512 0.145,-0.734 0.098,-0.221 0.228,-0.411 0.392,-0.569 0.164,-0.158 0.352,-0.279 0.565,-0.365 0.212,-0.085 0.43,-0.127 0.655,-0.127 h 1.457 c 0.237,0 0.461,0.042 0.674,0.127 0.212,0.086 0.399,0.207 0.56,0.365 0.16,0.158 0.288,0.348 0.382,0.569 0.094,0.222 0.141,0.469 0.141,0.743 v 0.51 h -4.161 z m 0.018,-0.684 h 3.315 v -0.109 c 0,-0.279 -0.1,-0.516 -0.3,-0.71 -0.2,-0.195 -0.46,-0.292 -0.781,-0.292 h -0.99 c -0.109,0 -0.218,0.009 -0.327,0.027 -0.278,0.043 -0.5,0.16 -0.667,0.351 -0.166,0.191 -0.25,0.409 -0.25,0.651 z m -2.749,-2.778 h -3.254 c -0.224,0 -0.446,0.045 -0.664,0.136 -0.218,0.092 -0.412,0.221 -0.581,0.388 -0.17,0.167 -0.306,0.367 -0.409,0.601 -0.103,0.234 -0.155,0.49 -0.155,0.77 v 0.683 c 0,0.286 0.052,0.544 0.155,0.774 0.103,0.231 0.238,0.432 0.405,0.602 0.167,0.17 0.357,0.3 0.569,0.391 0.213,0.092 0.428,0.137 0.647,0.137 h 4.07 v 0.711 h -4.203 c -0.304,0 -0.605,-0.061 -0.903,-0.182 -0.298,-0.122 -0.566,-0.295 -0.803,-0.52 -0.237,-0.224 -0.43,-0.492 -0.578,-0.802 -0.149,-0.309 -0.224,-0.655 -0.224,-1.038 v -0.838 c 0,-0.377 0.076,-0.721 0.228,-1.034 0.152,-0.313 0.349,-0.58 0.593,-0.802 0.243,-0.222 0.516,-0.395 0.82,-0.519 0.304,-0.125 0.608,-0.187 0.912,-0.187 h 4.185 v 2.542 h -0.81 z m -11.227,6.71 c -0.158,0.154 -0.348,0.274 -0.569,0.359 -0.222,0.085 -0.463,0.128 -0.724,0.128 h -2.14 v -0.692 h 2.058 c 0.164,0 0.311,-0.028 0.442,-0.082 0.13,-0.055 0.241,-0.128 0.332,-0.219 0.091,-0.091 0.161,-0.196 0.209,-0.314 0.049,-0.119 0.073,-0.245 0.073,-0.378 v -0.319 h -2.431 c -0.255,0 -0.495,-0.044 -0.719,-0.132 -0.225,-0.088 -0.421,-0.214 -0.587,-0.378 -0.167,-0.164 -0.299,-0.362 -0.396,-0.593 -0.098,-0.23 -0.146,-0.488 -0.146,-0.774 v -2.314 h 0.81 v 2.268 c 0,0.195 0.033,0.369 0.1,0.524 0.067,0.155 0.156,0.287 0.268,0.397 0.112,0.109 0.244,0.192 0.395,0.25 0.151,0.058 0.309,0.087 0.472,0.087 h 2.253 v -3.526 h 0.81 v 4.428 c 0,0.261 -0.046,0.501 -0.137,0.719 -0.091,0.219 -0.215,0.406 -0.373,0.561 z m -6.519,-3.825 c 0,-0.188 -0.032,-0.358 -0.096,-0.509 -0.063,-0.152 -0.148,-0.279 -0.254,-0.382 -0.106,-0.103 -0.227,-0.183 -0.363,-0.241 -0.137,-0.057 -0.28,-0.086 -0.432,-0.086 h -2.388 v 3.526 h -0.81 v -5.913 h 0.81 v 1.722 h 2.544 c 0.267,0 0.51,0.044 0.731,0.132 0.222,0.088 0.411,0.214 0.568,0.378 0.158,0.164 0.28,0.362 0.368,0.592 0.088,0.231 0.132,0.489 0.132,0.775 v 2.314 h -0.81 z m -8.026,2.212 c -0.252,-0.064 -0.471,-0.168 -0.656,-0.314 -0.185,-0.146 -0.329,-0.334 -0.433,-0.565 -0.103,-0.231 -0.154,-0.51 -0.154,-0.838 v -1.349 h -1.075 v -0.61 h 1.075 v -1.476 h 0.81 v 1.476 h 3.032 v 0.61 h -3.032 v 1.294 c 0,0.437 0.123,0.747 0.369,0.929 0.246,0.183 0.605,0.274 1.079,0.274 h 1.666 v 0.665 h -1.857 c -0.298,0 -0.573,-0.032 -0.824,-0.096 z m -5.755,-0.045 c -0.234,-0.095 -0.437,-0.224 -0.61,-0.388 -0.173,-0.164 -0.308,-0.356 -0.405,-0.578 -0.097,-0.222 -0.146,-0.463 -0.146,-0.724 v -4.091 h 0.811 v 4.045 c 0,0.17 0.03,0.328 0.091,0.474 0.06,0.145 0.148,0.273 0.264,0.382 0.115,0.11 0.255,0.196 0.419,0.26 0.163,0.064 0.349,0.096 0.555,0.096 h 2.203 v 0.665 h -2.422 c -0.273,0 -0.526,-0.047 -0.76,-0.141 z m -2.672,-0.31 c -0.128,0.136 -0.287,0.246 -0.478,0.328 -0.191,0.082 -0.418,0.123 -0.679,0.123 h -2.294 c -0.164,0 -0.32,-0.034 -0.469,-0.101 -0.149,-0.066 -0.281,-0.159 -0.396,-0.277 -0.115,-0.119 -0.206,-0.258 -0.273,-0.419 -0.067,-0.161 -0.1,-0.336 -0.1,-0.524 0,-0.207 0.036,-0.392 0.109,-0.556 0.073,-0.164 0.168,-0.302 0.287,-0.415 0.118,-0.112 0.252,-0.197 0.4,-0.255 0.149,-0.057 0.296,-0.086 0.442,-0.086 h 3.005 v -0.146 c 0,-0.212 -0.072,-0.39 -0.214,-0.533 -0.143,-0.143 -0.351,-0.214 -0.624,-0.214 h -2.358 v -0.665 h 2.485 c 0.504,0 0.887,0.132 1.148,0.396 0.261,0.264 0.391,0.603 0.391,1.016 v 1.321 c 0,0.182 -0.032,0.361 -0.095,0.538 -0.064,0.176 -0.16,0.332 -0.287,0.469 z m -0.437,-1.581 h -2.832 c -0.079,0 -0.156,0.015 -0.232,0.046 -0.076,0.03 -0.146,0.074 -0.21,0.132 -0.063,0.058 -0.115,0.129 -0.154,0.214 -0.04,0.085 -0.06,0.179 -0.06,0.282 0,0.104 0.02,0.198 0.06,0.283 0.039,0.085 0.091,0.158 0.154,0.218 0.064,0.061 0.134,0.108 0.21,0.142 0.076,0.033 0.153,0.05 0.232,0.05 h 2.012 c 0.146,0 0.27,-0.023 0.374,-0.069 0.103,-0.045 0.188,-0.104 0.255,-0.177 0.066,-0.073 0.115,-0.157 0.145,-0.251 0.031,-0.094 0.046,-0.187 0.046,-0.278 z m -9.36,0.301 c 0,0.14 0.024,0.273 0.072,0.401 0.049,0.127 0.118,0.24 0.209,0.337 0.091,0.097 0.206,0.176 0.345,0.237 0.139,0.06 0.3,0.091 0.482,0.091 h 2.215 v 0.665 h -2.376 c -0.237,0 -0.463,-0.043 -0.679,-0.128 -0.215,-0.085 -0.402,-0.206 -0.56,-0.364 -0.158,-0.158 -0.283,-0.346 -0.378,-0.565 -0.094,-0.219 -0.141,-0.462 -0.141,-0.729 v -0.61 c 0,-0.268 0.049,-0.512 0.146,-0.734 0.097,-0.221 0.228,-0.411 0.392,-0.569 0.163,-0.158 0.352,-0.279 0.564,-0.365 0.212,-0.085 0.431,-0.127 0.656,-0.127 h 1.456 c 0.237,0 0.462,0.042 0.674,0.127 0.213,0.086 0.399,0.207 0.56,0.365 0.161,0.158 0.288,0.348 0.383,0.569 0.094,0.222 0.141,0.469 0.141,0.743 v 0.51 h -4.161 z m 0.018,-0.684 h 3.314 v -0.109 c 0,-0.279 -0.1,-0.516 -0.299,-0.71 -0.2,-0.195 -0.461,-0.292 -0.781,-0.292 h -0.99 c -0.109,0 -0.218,0.009 -0.327,0.027 -0.279,0.043 -0.501,0.16 -0.667,0.351 -0.167,0.191 -0.25,0.409 -0.25,0.651 z m -2.968,-0.318 H 3.078 v 2.733 H 2.232 v -5.913 h 0.846 v 2.469 h 5.218 v -2.469 h 0.865 v 5.913 H 8.296 Z"
     id="path6"
     inkscape:connector-curvature="0"
     style="fill:#3699FF ;fill-rule:evenodd" />
  <path
     d="m 2.146,36.723148 c 0,-4.793 0,-9.589 0,-14.383 0.212,-0.112 0.25,-0.281 0.54,-0.315 0.276,-0.173 1.1,-0.045 1.484,-0.045 1.288,0 2.577,0 3.866,0 1.544,0 3.088,0 4.631,0 0.779,0.015 1.559,0.03 2.338,0.045 0.969,0.23 1.808,0.587 2.518,1.082 0.644,0.449 1.13,1.434 1.439,2.209 0.151,0.38 0.138,0.944 0.224,1.353 0.03,0.142 -0.029,0.334 -0.045,0.406 0,0.165 0,0.33 0,0.496 -0.167,0.681 -0.374,1.292 -0.674,1.803 -0.653,1.114 -1.541,1.739 -2.833,2.209 -0.839,0.306 -2.108,0.181 -3.192,0.181 -2.037,0 -4.076,0 -6.114,0 -0.166,0.323 -0.09,1.016 -0.09,1.488 0,1.142 0,2.284 0,3.426 -0.015,0 -0.03,0 -0.045,0 -0.244,0.7 -2.64,0.466 -3.642,0.451 -0.052,-0.142 -0.264,-0.352 -0.405,-0.406 z m 4.092,-8.611 c 0.461,0.236 1.527,0.09 2.158,0.09 1.738,0 3.477,0 5.215,0 0.089,-0.054 0.223,-0.009 0.36,-0.045 0.312,-0.082 0.57,-0.207 0.764,-0.406 0.744,-0.764 0.135,-1.909 -0.629,-2.164 -2.607,0 -5.216,0 -7.823,0 0,0.015 0,0.03 0,0.045 -0.015,0 -0.03,0 -0.045,0 0,0.826 0,1.653 0,2.48 z m 14.252,2.885 c 0,-2.284 0,-4.569 0,-6.853 0,-0.752 -0.223,-2.068 0.495,-2.119 0.168,-0.133 0.556,-0.09 0.854,-0.09 0.679,0 2.403,-0.153 2.608,0.27 0.349,0.377 0.18,2.344 0.18,3.201 0,1.263 0,2.525 0,3.788 0.015,0.616 0.03,1.232 0.045,1.848 0.228,0.828 0.884,1.816 1.573,2.165 0.676,0.342 1.767,0.27 2.788,0.27 1.935,0 3.089,0.175 4.226,-0.676 1.054,-0.789 1.08,-2.293 1.079,-4.148 0,-2.127 -0.057,-4.468 0.09,-6.448 0.093,-0.058 0.104,-0.093 0.225,-0.135 0.22,-0.16 0.61,-0.135 0.989,-0.135 0.825,0 1.955,-0.116 2.563,0.135 0.336,0.531 0.27,1.154 0.27,2.029 0,1.277 0,2.555 0,3.832 0,1.324 0.152,2.894 -0.135,4.013 -0.564,2.199 -2.022,3.767 -3.912,4.644 -0.492,0.229 -1.035,0.203 -1.573,0.406 -0.033,0.012 -0.113,0.127 -0.135,0.135 -0.869,0 -1.739,0 -2.608,0 -1.289,0 -2.578,0 -3.867,0 -0.022,-0.008 -0.102,-0.123 -0.135,-0.135 -0.164,-0.015 -0.329,-0.03 -0.494,-0.045 -0.334,-0.093 -0.797,-0.2 -1.124,-0.361 -1.444,-0.71 -2.694,-1.773 -3.372,-3.246 -0.195,-0.424 -0.343,-0.889 -0.495,-1.353 -0.097,-0.297 0.019,-0.743 -0.135,-0.992 z m 19.289,0.226 c 0,-2.254 0,-4.509 0,-6.763 0,-0.804 -0.171,-2.053 0.314,-2.39 0.225,-0.175 0.682,-0.135 1.079,-0.135 0.84,0 1.766,0.049 2.473,0.09 0.382,0.62 0.27,1.752 0.27,2.84 0,2.101 -0.305,6.04 0.45,7.35 0.06,0.045 0.12,0.09 0.18,0.135 0.463,0.63 0.892,0.918 1.798,1.127 0.614,0 1.229,0 1.843,0 0.193,0.031 0.523,-0.09 0.9,-0.09 0.944,0 1.888,0 2.832,0 1.604,0 3.208,0 4.811,0 0.664,0 1.631,0.147 2.203,-0.045 0.948,-0.319 2.218,-1.236 2.293,-2.39 -0.293,-0.096 -0.8,-0.045 -1.169,-0.045 -0.899,0 -1.798,0 -2.698,0 -2.877,0 -5.755,0 -8.632,0 -0.112,-0.081 -0.309,-0.144 -0.45,-0.18 -0.384,-0.879 -0.173,-3.683 0.18,-4.419 0.121,-0.251 0.311,-0.576 0.45,-0.811 0.113,-0.192 0.117,-0.343 0.225,-0.541 0.562,-1.043 2.272,-2.324 3.462,-2.751 0.365,-0.131 0.609,-0.058 0.989,-0.18 0.066,-0.022 0.214,-0.16 0.269,-0.18 3.762,0 7.524,0 11.286,0 0.066,0.183 0.252,0.251 0.315,0.405 0,0.962 0,1.924 0,2.886 -0.037,0.046 -0.017,0.012 -0.046,0.09 -0.755,0.304 -1.935,0.225 -3.012,0.225 -1.798,0 -3.597,0 -5.395,0 -0.873,0 -1.985,-0.117 -2.653,0.136 -0.757,0.286 -1.45,0.909 -1.753,1.668 4.106,0 8.213,0 12.319,0 0.088,0.07 0.232,0.107 0.36,0.135 0.048,0.08 0.113,0.163 0.18,0.226 0.014,1.456 0.164,3.233 -0.18,4.418 -0.588,2.02 -2.02,3.518 -3.777,4.374 -0.105,0.015 -0.21,0.03 -0.315,0.045 -0.185,0.09 -0.51,0.255 -0.719,0.316 -0.105,0 -0.21,0 -0.315,0 -0.131,0.037 -0.343,0.144 -0.495,0.18 -0.959,0.015 -1.918,0.03 -2.877,0.045 -0.163,-0.033 -0.135,0.079 -0.27,0.135 -0.329,0 -0.659,0 -0.989,0 -1.259,0 -2.518,0 -3.777,0 -3.092,0 -6.62,0.282 -8.722,-0.721 -1.354,-0.647 -2.3,-2.025 -2.878,-3.472 -0.158,-0.398 -0.168,-1.416 -0.359,-1.713 z m 27.156,-0.091 c -0.01,-1.239 -0.177,-3.052 0.135,-4.057 0.533,-1.716 1.636,-3.342 3.057,-4.148 0.201,-0.114 0.385,-0.111 0.585,-0.226 0.135,-0.078 0.35,-0.263 0.494,-0.315 0.736,-0.267 1.601,-0.338 2.383,-0.541 2.743,0 5.486,0 8.228,0 0.939,0 2.392,-0.24 2.428,0.676 0.094,0.149 0.045,0.538 0.045,0.766 0,0.651 -0.014,1.356 -0.045,1.939 -0.126,0.083 -0.23,0.251 -0.359,0.316 -0.32,0.159 -2.133,0.045 -2.653,0.045 -2.548,0 -5.096,0 -7.644,0 -0.64,0.161 -1.403,0.569 -1.753,1.037 -0.144,0.192 -0.241,0.415 -0.405,0.586 0.029,0.079 0.009,0.044 0.045,0.09 0.138,0.144 0.535,0.09 0.81,0.09 0.749,0 1.498,0 2.248,0 3.027,0 6.055,0 9.082,0 0.112,0.141 0.316,0.282 0.449,0.406 0,0.736 0,1.473 0,2.209 0,0.364 0.036,0.713 -0.179,0.857 -0.425,0.284 -2.081,0.135 -2.788,0.135 -2.398,0 -4.796,0 -7.194,0 -0.644,0 -1.289,0 -1.933,0 -0.207,0 -0.662,-0.034 -0.72,0 -0.116,0.068 -0.095,0.135 -0.09,0.316 0.18,0.195 0.217,0.536 0.36,0.766 0.367,0.588 1.01,1.152 1.754,1.353 0.747,0.202 1.86,0.045 2.697,0.045 1.888,0 3.777,0 5.666,0 0.883,0 2.572,-0.285 2.607,0.586 0.095,0.148 0.045,0.539 0.045,0.767 0,0.669 0.029,1.449 -0.09,1.984 -0.1,0.063 -0.206,0.105 -0.314,0.18 -0.015,0.045 -0.031,0.09 -0.046,0.135 -1.049,0 -2.098,0 -3.147,0 -2.652,0 -5.306,0 -7.958,0 -0.303,-0.279 -0.919,-0.208 -1.349,-0.36 -0.936,-0.333 -1.811,-0.986 -2.517,-1.579 -0.594,-0.497 -1.282,-1.754 -1.619,-2.525 -0.177,-0.404 -0.097,-1.185 -0.315,-1.533 z"
     id="path8"
     inkscape:connector-curvature="0"
     style="fill:#F64E60;fill-rule:evenodd" />
  <path
     d="m 84.471,11.183148 c -0.103,0.211 -0.225,0.415 -0.367,0.612 -0.142,0.198 -0.286,0.367 -0.432,0.509 -0.146,0.142 -0.257,0.213 -0.335,0.213 -0.128,0 -0.326,-0.016 -0.592,-0.046 -0.266,-0.03 -0.537,-0.088 -0.812,-0.173 -0.274,-0.086 -0.532,-0.2 -0.772,-0.342 -0.241,-0.142 -0.4,-0.328 -0.477,-0.56 -0.18,0.223 -0.35,0.401 -0.509,0.534 -0.159,0.134 -0.313,0.234 -0.464,0.303 -0.15,0.069 -0.302,0.112 -0.457,0.129 -0.154,0.017 -0.318,0.026 -0.489,0.026 v 0 c 0,0 0,0 0,0 0,0 0,0 0,0 0,0 0,0 0,0 -0.146,-0.009 -0.279,-0.024 -0.4,-0.045 -0.12,-0.022 -0.231,-0.075 -0.334,-0.161 -0.095,0.463 -0.256,0.886 -0.483,1.268 -0.228,0.382 -0.486,0.709 -0.773,0.979 -0.288,0.271 -0.586,0.481 -0.896,0.631 -0.309,0.151 -0.592,0.226 -0.85,0.226 -0.068,0 -0.178,-0.024 -0.328,-0.071 -0.15,-0.047 -0.322,-0.107 -0.515,-0.18 -0.194,-0.073 -0.397,-0.155 -0.612,-0.245 -0.215,-0.09 -0.417,-0.183 -0.606,-0.277 l 0.387,-1.352 1.481,0.128 c 0.146,-0.034 0.314,-0.107 0.502,-0.219 0.189,-0.111 0.372,-0.242 0.548,-0.392 0.176,-0.151 0.333,-0.314 0.47,-0.49 0.137,-0.176 0.232,-0.346 0.283,-0.509 -0.034,-0.163 -0.086,-0.352 -0.154,-0.567 -0.069,-0.214 -0.146,-0.437 -0.232,-0.669 -0.086,-0.232 -0.18,-0.4640001 -0.283,-0.6960001 -0.103,-0.232 -0.202,-0.446 -0.297,-0.644 l 1.482,-1.224 0.708,1.804 c 0.077,0.206 0.178,0.3430001 0.303,0.4120001 0.124,0.069 0.315,0.103 0.573,0.103 h 0.026 c 0.257,0 0.478,-0.015 0.663,-0.045 0.185,-0.03 0.348,-0.079 0.49,-0.148 0.141,-0.069 0.268,-0.1550001 0.38,-0.2580001 0.111,-0.103 0.223,-0.232 0.334,-0.386 0.189,-0.258 0.363,-0.5 0.522,-0.728 0.159,-0.228 0.318,-0.425 0.477,-0.593 0.159,-0.167 0.332,-0.3 0.521,-0.399 0.189,-0.099 0.413,-0.148 0.67,-0.148 0.275,0 0.524,0.084 0.747,0.251 0.224,0.168 0.412,0.393 0.567,0.676 0.155,0.284 0.275,0.617 0.361,0.999 0.085,0.382 0.129,0.7920001 0.129,1.2300001 0,0.146 -0.052,0.324 -0.155,0.534 z M 82.945,9.5601479 c -0.125,-0.176 -0.252,-0.264 -0.38,-0.264 -0.112,0 -0.215,0.03 -0.31,0.09 -0.094,0.061 -0.176,0.131 -0.244,0.213 -0.069,0.082 -0.123,0.161 -0.161,0.238 -0.039,0.078 -0.058,0.134 -0.058,0.1680001 0,0.069 0.04,0.129 0.122,0.18 0.082,0.052 0.191,0.099 0.329,0.142 0.137,0.043 0.294,0.075 0.47,0.096 0.176,0.022 0.362,0.033 0.56,0.033 -0.095,-0.421 -0.204,-0.7200001 -0.328,-0.8960001 z m -10.389,-3.304 c 0.421,0.335 0.78,0.666 1.076,0.992 0.296,0.327 0.539,0.638 0.728,0.934 0.188,0.296 0.326,0.578 0.412,0.844 0.085,0.266 0.129,0.507 0.129,0.721 0,0.112 -0.035,0.2620001 -0.103,0.4510001 -0.069,0.189 -0.153,0.38 -0.252,0.573 -0.098,0.193 -0.199,0.374 -0.302,0.541 -0.103,0.168 -0.185,0.29 -0.245,0.367 -0.138,0.155 -0.329,0.277 -0.573,0.367 -0.245,0.091 -0.522,0.161 -0.831,0.213 -0.309,0.051 -0.638,0.086 -0.985,0.103 -0.348,0.017 -0.69,0.026 -1.025,0.026 h -0.193 c 0,0 0,0 0,0 -0.146,-0.009 -0.279,-0.024 -0.399,-0.045 -0.12,-0.022 -0.232,-0.075 -0.335,-0.161 -0.095,0.463 -0.256,0.886 -0.483,1.268 -0.228,0.382 -0.485,0.709 -0.773,0.979 -0.288,0.271 -0.586,0.481 -0.895,0.631 -0.309,0.151 -0.593,0.226 -0.85,0.226 -0.069,0 -0.178,-0.024 -0.329,-0.071 -0.15,-0.047 -0.322,-0.107 -0.515,-0.18 -0.193,-0.073 -0.397,-0.155 -0.612,-0.245 -0.214,-0.09 -0.416,-0.183 -0.605,-0.277 l 0.386,-1.352 1.482,0.128 c 0.146,-0.034 0.313,-0.107 0.502,-0.219 0.189,-0.111 0.371,-0.242 0.547,-0.392 0.176,-0.151 0.333,-0.314 0.471,-0.49 0.137,-0.176 0.231,-0.346 0.283,-0.509 -0.034,-0.163 -0.086,-0.352 -0.155,-0.567 -0.068,-0.214 -0.146,-0.437 -0.231,-0.669 -0.086,-0.232 -0.181,-0.4640001 -0.284,-0.6960001 -0.103,-0.232 -0.202,-0.446 -0.296,-0.644 l 1.481,-1.224 0.709,1.804 c 0.077,0.206 0.178,0.3430001 0.302,0.4120001 0.125,0.069 0.32,0.103 0.586,0.103 h 0.013 v 0 h 0.258 c 0.154,0 0.348,-0.002 0.58,-0.006 0.231,-0.005 0.478,-0.013 0.74,-0.026 0.262,-0.013 0.52,-0.037 0.773,-0.071 0.253,-0.034 0.479,-0.082 0.676,-0.1420001 -0.214,-0.438 -0.571,-0.906 -1.069,-1.404 -0.498,-0.498 -1.086,-0.979 -1.765,-1.442 0.052,-0.404 0.101,-0.752 0.149,-1.044 0.047,-0.292 0.116,-0.536 0.206,-0.734 0.09,-0.197 0.208,-0.358 0.354,-0.483 0.146,-0.124 0.339,-0.221 0.58,-0.29 l 4.186,-1.185 -0.451,1.997 z m -4.862,0.999 c -0.288,-0.176 -0.556,-0.337 -0.805,-0.483 l 0.85,-1.482 c 0.317,0.129 0.609,0.282 0.876,0.458 0.266,0.176 0.498,0.358 0.695,0.547 l -0.888,1.443 c -0.198,-0.146 -0.441,-0.307 -0.728,-0.483 z m -4.714,-1.437 c -0.262,-0.154 -0.509,-0.3 -0.741,-0.437 l -0.541,0.875 c -0.198,-0.154 -0.442,-0.317 -0.734,-0.489 -0.292,-0.172 -0.562,-0.331 -0.812,-0.477 l 0.851,-1.481 c 0.283,0.12 0.545,0.256 0.785,0.406 0.241,0.15 0.455,0.307 0.644,0.47 l 0.503,-0.876 c 0.317,0.129 0.609,0.281 0.876,0.457 0.266,0.176 0.498,0.359 0.695,0.548 l -0.876,1.442 c -0.172,-0.137 -0.388,-0.283 -0.65,-0.438 z m -2.183,4.3800001 h 0.128 c 0.043,0 0.12,0 0.232,0 0.112,0 0.243,-0.006 0.393,-0.019 0.15,-0.013 0.305,-0.037 0.464,-0.071 0.159,-0.034 0.302,-0.082 0.431,-0.1420001 -0.034,-0.172 -0.079,-0.356 -0.135,-0.554 -0.056,-0.197 -0.116,-0.393 -0.18,-0.586 -0.065,-0.193 -0.134,-0.382 -0.206,-0.567 -0.074,-0.184 -0.149,-0.354 -0.226,-0.508 l 1.546,-1.224 c 0.223,0.489 0.397,1.02 0.522,1.591 0.124,0.571 0.186,1.114 0.186,1.629 0,0.112 -0.034,0.2660001 -0.103,0.4640001 -0.069,0.197 -0.154,0.401 -0.257,0.612 -0.103,0.21 -0.211,0.408 -0.322,0.592 -0.112,0.185 -0.206,0.316 -0.284,0.393 -0.077,0.077 -0.193,0.153 -0.348,0.225 -0.154,0.074 -0.33,0.136 -0.528,0.187 -0.197,0.052 -0.41,0.093 -0.637,0.123 -0.228,0.03 -0.453,0.045 -0.676,0.045 v 0 h -0.129 c -0.164,0 -0.34,-0.009 -0.528,-0.026 -0.189,-0.017 -0.378,-0.058 -0.567,-0.122 -0.189,-0.065 -0.367,-0.157 -0.535,-0.277 -0.167,-0.121 -0.307,-0.284 -0.418,-0.49 -0.061,0.095 -0.106,0.17 -0.136,0.226 -0.03,0.056 -0.053,0.092 -0.07,0.109 -0.078,0.077 -0.194,0.153 -0.348,0.225 -0.155,0.074 -0.331,0.136 -0.528,0.187 -0.198,0.052 -0.411,0.093 -0.638,0.123 -0.228,0.03 -0.453,0.045 -0.676,0.045 v 0 c 0,0 0,0 0,0 0,0 0,0 0,0 0,0 0,0 0,0 -0.198,0 -0.393,-0.011 -0.586,-0.033 -0.193,-0.021 -0.385,-0.066 -0.573,-0.135 -0.189,-0.068 -0.372,-0.171 -0.548,-0.309 -0.176,-0.137 -0.337,-0.322 -0.483,-0.554 -0.077,0.198 -0.146,0.327 -0.206,0.387 -0.051,0.051 -0.135,0.114 -0.251,0.186 -0.116,0.073 -0.266,0.144 -0.451,0.213 -0.185,0.069 -0.401,0.127 -0.65,0.174 -0.25,0.047 -0.524,0.071 -0.825,0.071 -0.481,0 -0.859,-0.043 -1.133,-0.129 -0.275,-0.086 -0.481,-0.202 -0.619,-0.348 -0.137,-0.146 -0.223,-0.322 -0.257,-0.528 -0.035,-0.206 -0.052,-0.425 -0.052,-0.657 0,-0.275 0.015,-0.569 0.045,-0.8820001 0.03,-0.314 0.075,-0.603 0.136,-0.87 l 1.094,0.129 c -0.025,0.198 -0.038,0.391 -0.038,0.58 0,0.086 0.002,0.161 0.006,0.225 0.004,0.065 0.039,0.1180001 0.103,0.1610001 0.065,0.043 0.17,0.075 0.316,0.097 0.146,0.021 0.361,0.032 0.644,0.032 0.154,0 0.363,-0.011 0.625,-0.032 0.261,-0.022 0.577,-0.092 0.946,-0.2130001 -0.163,-0.618 -0.35,-1.191 -0.56,-1.719 -0.21,-0.528 -0.44,-1.012 -0.689,-1.449 l 1.481,-1.289 c 0.223,0.421 0.434,0.958 0.631,1.611 0.198,0.652 0.395,1.382 0.593,2.189 0.077,0.327 0.232,0.559 0.464,0.696 0.231,0.1370001 0.51,0.2060001 0.837,0.2060001 h 0.129 c 0.042,0 0.12,-0.002 0.231,-0.006 0.112,-0.005 0.241,-0.013 0.387,-0.026 0.146,-0.013 0.298,-0.034 0.457,-0.065 0.159,-0.03 0.307,-0.075 0.445,-0.1350001 -0.035,-0.275 -0.065,-0.547 -0.091,-0.818 -0.025,-0.27 -0.051,-0.543 -0.077,-0.818 l 1.675,-0.837 0.193,1.932 c 0.017,0.172 0.064,0.309 0.142,0.412 0.077,0.103 0.173,0.1810001 0.289,0.2320001 0.116,0.052 0.243,0.086 0.38,0.103 0.138,0.017 0.275,0.026 0.413,0.026 z M 57.969,6.4301479 c -0.288,-0.176 -0.556,-0.337 -0.805,-0.483 l 0.85,-1.481 c 0.318,0.129 0.61,0.281 0.876,0.457 0.266,0.176 0.498,0.359 0.696,0.548 l -0.889,1.442 c -0.198,-0.146 -0.44,-0.307 -0.728,-0.483 z M 47.948,14.191148 c -0.314,0.343 -0.649,0.612 -1.005,0.805 -0.356,0.193 -0.68,0.29 -0.972,0.29 -0.069,0 -0.178,-0.024 -0.329,-0.071 -0.15,-0.047 -0.322,-0.107 -0.515,-0.18 -0.193,-0.073 -0.397,-0.155 -0.612,-0.245 -0.214,-0.09 -0.416,-0.183 -0.605,-0.277 l 0.386,-1.352 1.481,0.128 c 0.147,-0.034 0.314,-0.107 0.503,-0.219 0.189,-0.111 0.371,-0.242 0.547,-0.392 0.176,-0.151 0.333,-0.314 0.47,-0.49 0.138,-0.176 0.232,-0.346 0.284,-0.509 -0.035,-0.163 -0.086,-0.352 -0.155,-0.567 -0.069,-0.214 -0.146,-0.437 -0.232,-0.669 -0.086,-0.232 -0.18,-0.4640001 -0.283,-0.6960001 -0.103,-0.232 -0.202,-0.446 -0.296,-0.644 l 1.481,-1.224 c 0.386,0.868 0.644,1.576 0.773,2.1260001 0.129,0.549 0.193,1 0.193,1.352 0,0.584 -0.107,1.116 -0.322,1.597 -0.215,0.481 -0.479,0.893 -0.792,1.237 z m -2.409,-3.207 c -0.09,0.197 -0.189,0.382 -0.296,0.554 -0.107,0.171 -0.208,0.304 -0.303,0.399 -0.128,0.129 -0.337,0.236 -0.624,0.322 -0.288,0.086 -0.595,0.129 -0.921,0.129 -0.258,0 -0.518,-0.045 -0.78,-0.136 -0.262,-0.09 -0.478,-0.255 -0.65,-0.495 -0.198,0.24 -0.419,0.405 -0.663,0.495 -0.245,0.091 -0.514,0.136 -0.806,0.136 -0.36,0 -0.684,-0.052 -0.972,-0.155 -0.288,-0.103 -0.517,-0.313 -0.689,-0.631 -0.215,0.318 -0.46,0.528 -0.734,0.631 -0.275,0.103 -0.593,0.155 -0.954,0.155 h -0.193 v 0 h -0.129 c -0.163,0 -0.339,-0.009 -0.528,-0.026 -0.189,-0.017 -0.378,-0.058 -0.566,-0.122 -0.189,-0.065 -0.368,-0.157 -0.535,-0.277 -0.167,-0.121 -0.307,-0.284 -0.419,-0.49 -0.06,0.095 -0.105,0.17 -0.135,0.226 -0.03,0.056 -0.054,0.092 -0.071,0.109 -0.077,0.077 -0.193,0.153 -0.347,0.225 -0.155,0.074 -0.331,0.136 -0.529,0.187 -0.197,0.052 -0.41,0.093 -0.637,0.123 -0.228,0.03 -0.453,0.045 -0.676,0.045 v 0 h -0.103 c 0.042,0.068 0.07,0.135 0.083,0.199 0.013,0.065 0.02,0.127 0.02,0.187 0,0.095 -0.022,0.213 -0.065,0.354 -0.043,0.142 -0.09,0.277 -0.141,0.406 -0.052,0.129 -0.101,0.245 -0.149,0.348 -0.047,0.103 -0.079,0.163 -0.096,0.18 -0.129,0.163 -0.307,0.316 -0.535,0.457 -0.227,0.142 -0.485,0.265 -0.773,0.368 -0.287,0.103 -0.601,0.184 -0.94,0.244 -0.339,0.06 -0.685,0.09 -1.037,0.09 -0.713,0 -1.288,-0.101 -1.726,-0.302 -0.438,-0.202 -0.743,-0.423 -0.914,-0.664 -0.181,-0.249 -0.31,-0.528 -0.387,-0.837 -0.077,-0.309 -0.116,-0.644 -0.116,-1.005 0,-0.541 0.073,-1.09 0.219,-1.648 0.146,-0.558 0.327,-1.0690001 0.541,-1.5330001 l 1.16,0.386 c -0.164,0.4730001 -0.28,0.8780001 -0.348,1.2180001 -0.069,0.339 -0.103,0.633 -0.103,0.882 0,0.198 0.017,0.367 0.051,0.509 0.034,0.141 0.082,0.259 0.142,0.354 0.034,0.06 0.101,0.116 0.2,0.167 0.098,0.052 0.221,0.099 0.367,0.142 0.146,0.043 0.307,0.077 0.483,0.103 0.176,0.026 0.362,0.039 0.56,0.039 0.326,0 0.68,-0.018 1.063,-0.052 0.382,-0.034 0.719,-0.103 1.011,-0.206 -0.172,-0.154 -0.44,-0.288 -0.805,-0.399 -0.365,-0.112 -0.745,-0.215 -1.14,-0.309 l 0.386,-1.288 c 0.069,-0.224 0.172,-0.376 0.309,-0.458 0.138,-0.081 0.335,-0.122 0.593,-0.122 h 2.19 v 0 h 0.128 c 0.043,0 0.121,-0.002 0.232,-0.006 0.112,-0.005 0.241,-0.013 0.387,-0.026 0.146,-0.013 0.298,-0.034 0.457,-0.065 0.159,-0.03 0.307,-0.075 0.444,-0.1350001 -0.034,-0.275 -0.064,-0.547 -0.09,-0.818 -0.026,-0.27 -0.051,-0.543 -0.077,-0.818 l 1.674,-0.837 0.194,1.932 c 0.017,0.172 0.064,0.309 0.141,0.412 0.078,0.103 0.174,0.1810001 0.29,0.2320001 0.116,0.052 0.243,0.086 0.38,0.103 0.137,0.017 0.275,0.026 0.412,0.026 h 0.258 c 0.386,0 0.659,-0.058 0.818,-0.174 0.159,-0.1160001 0.259,-0.2720001 0.302,-0.4700001 l 0.297,-1.288 1.352,0.064 c -0.034,0.292 -0.064,0.537 -0.09,0.734 -0.026,0.198 -0.039,0.361 -0.039,0.49 0,0.429 0.236,0.6440001 0.709,0.6440001 0.498,0 0.777,-0.15 0.837,-0.4510001 l 0.129,-1.417 h 1.352 v 1.7260001 c 0.086,0.052 0.185,0.088 0.297,0.11 0.111,0.021 0.206,0.032 0.283,0.032 0.094,0 0.217,-0.002 0.367,-0.006 0.15,-0.005 0.307,-0.024 0.47,-0.058 -0.034,-0.1630001 -0.077,-0.3480001 -0.128,-0.5540001 -0.052,-0.206 -0.11,-0.419 -0.174,-0.638 -0.065,-0.219 -0.134,-0.431 -0.206,-0.638 -0.074,-0.206 -0.14,-0.39 -0.2,-0.553 l 1.546,-1.224 c 0.145,0.335 0.264,0.672 0.354,1.011 0.09,0.339 0.161,0.657 0.212,0.953 0.052,0.296 0.088,0.565 0.11,0.805 0.021,0.241 0.032,0.434 0.032,0.58 0,0.1460001 -0.028,0.3180001 -0.084,0.5150001 -0.056,0.198 -0.129,0.395 -0.219,0.593 z M 35.183,6.4751479 c -0.262,-0.154 -0.509,-0.3 -0.74,-0.438 l -0.541,0.876 c -0.198,-0.154 -0.443,-0.317 -0.735,-0.489 -0.292,-0.172 -0.562,-0.331 -0.811,-0.477 l 0.85,-1.481 c 0.283,0.12 0.545,0.256 0.786,0.406 0.24,0.15 0.455,0.307 0.644,0.47 l 0.502,-0.876 c 0.318,0.129 0.61,0.281 0.876,0.457 0.266,0.176 0.498,0.359 0.696,0.548 l -0.876,1.442 c -0.172,-0.137 -0.389,-0.283 -0.651,-0.438 z M 23.584,10.823148 c -0.103,0.21 -0.21,0.408 -0.322,0.592 -0.112,0.185 -0.206,0.316 -0.283,0.393 -0.077,0.077 -0.193,0.153 -0.348,0.225 -0.155,0.074 -0.331,0.136 -0.528,0.187 -0.198,0.052 -0.41,0.093 -0.638,0.123 -0.227,0.03 -0.453,0.045 -0.676,0.045 v 0 h -0.386 c -0.456,0 -0.831,-0.065 -1.127,-0.194 -0.297,-0.128 -0.533,-0.309 -0.709,-0.541 -0.176,-0.231 -0.301,-0.504 -0.373,-0.817 -0.073,-0.314 -0.11,-0.655 -0.11,-1.0240001 0,-0.49 0,-0.915 0,-1.276 0,-0.36 -0.002,-0.676 -0.006,-0.946 -0.005,-0.271 -0.011,-0.511 -0.02,-0.722 -0.008,-0.21 -0.021,-0.41 -0.038,-0.599 -0.026,-0.274 -0.058,-0.538 -0.097,-0.792 -0.039,-0.253 -0.092,-0.483 -0.161,-0.689 l 1.417,-1.288 c 0.163,0.292 0.268,0.618 0.316,0.979 0.047,0.361 0.07,0.786 0.07,1.275 v 3.478 c 0,0.326 0.071,0.569 0.213,0.728 0.142,0.1590001 0.393,0.2380001 0.754,0.2380001 h 0.257 v 0 h 0.129 c 0.043,0 0.12,0 0.232,0 0.111,0 0.242,-0.006 0.393,-0.019 0.15,-0.013 0.304,-0.037 0.463,-0.071 0.159,-0.034 0.303,-0.082 0.432,-0.1420001 -0.035,-0.172 -0.08,-0.356 -0.135,-0.554 -0.056,-0.197 -0.116,-0.393 -0.181,-0.586 -0.064,-0.193 -0.133,-0.382 -0.206,-0.567 -0.073,-0.184 -0.148,-0.354 -0.225,-0.508 l 1.545,-1.224 c 0.224,0.489 0.398,1.02 0.522,1.591 0.124,0.571 0.187,1.114 0.187,1.629 0,0.112 -0.035,0.2660001 -0.103,0.4640001 -0.069,0.197 -0.155,0.401 -0.258,0.612 z m -6.608,0.161 c -0.077,0.189 -0.161,0.365 -0.251,0.528 -0.09,0.163 -0.174,0.283 -0.251,0.36 -0.163,0.164 -0.408,0.29 -0.734,0.38 -0.327,0.091 -0.683,0.136 -1.069,0.136 v 0 c 0,0 0,0 0,0 0,0 0,0 0,0 0,0 0,0 0,0 -0.181,0 -0.369,-0.009 -0.567,-0.026 -0.197,-0.017 -0.391,-0.054 -0.579,-0.11 -0.189,-0.055 -0.368,-0.135 -0.535,-0.238 -0.167,-0.103 -0.311,-0.245 -0.432,-0.425 -0.051,0.112 -0.094,0.193 -0.128,0.245 -0.035,0.051 -0.061,0.086 -0.078,0.103 -0.128,0.129 -0.311,0.236 -0.547,0.322 -0.236,0.086 -0.483,0.129 -0.741,0.129 -0.24,0 -0.483,-0.043 -0.727,-0.129 -0.245,-0.086 -0.466,-0.24 -0.664,-0.464 -0.215,0.249 -0.444,0.41 -0.689,0.483 -0.245,0.073 -0.517,0.11 -0.818,0.11 -0.129,0 -0.249,-0.007 -0.361,-0.02 -0.111,-0.013 -0.219,-0.053 -0.322,-0.122 -0.017,0.052 -0.032,0.105 -0.045,0.161 -0.013,0.056 -0.028,0.114 -0.045,0.174 -0.086,0.258 -0.187,0.509 -0.302,0.753 -0.116,0.245 -0.209,0.402 -0.277,0.471 -0.112,0.128 -0.288,0.257 -0.529,0.386 -0.24,0.129 -0.523,0.247 -0.85,0.354 -0.326,0.108 -0.685,0.193 -1.075,0.258 -0.391,0.064 -0.797,0.096 -1.217,0.096 -0.713,0 -1.289,-0.101 -1.726,-0.302 -0.438,-0.202 -0.743,-0.423 -0.915,-0.664 -0.18,-0.249 -0.309,-0.528 -0.386,-0.837 -0.078,-0.309 -0.116,-0.644 -0.116,-1.005 0,-0.541 0.072,-1.09 0.219,-1.648 C 0.365,9.8851479 0.545,9.3741479 0.76,8.9101479 l 1.159,0.386 c -0.163,0.473 -0.279,0.8780001 -0.348,1.2180001 -0.069,0.339 -0.103,0.633 -0.103,0.882 0,0.198 0.017,0.367 0.052,0.509 0.034,0.141 0.081,0.259 0.141,0.354 0.034,0.06 0.101,0.116 0.2,0.167 0.099,0.052 0.221,0.099 0.367,0.142 0.146,0.043 0.307,0.077 0.483,0.103 0.176,0.026 0.363,0.039 0.56,0.039 0.455,0 0.921,-0.039 1.398,-0.116 0.477,-0.077 0.908,-0.189 1.294,-0.335 -0.043,-0.507 -0.109,-1.039 -0.199,-1.597 -0.09,-0.558 -0.213,-1.1640001 -0.367,-1.8170001 l 1.61,-0.966 0.322,1.417 c 0.043,0.181 0.086,0.329 0.129,0.445 0.043,0.116 0.098,0.208 0.167,0.2770001 0.069,0.068 0.15,0.116 0.245,0.141 0.094,0.026 0.214,0.039 0.36,0.039 0.498,0 0.778,-0.15 0.838,-0.4510001 l 0.129,-1.417 h 1.352 v 1.7260001 c 0.086,0.052 0.185,0.088 0.296,0.11 0.112,0.021 0.206,0.032 0.284,0.032 0.085,0 0.188,-0.006 0.309,-0.019 0.12,-0.013 0.227,-0.037 0.322,-0.071 l -0.18,-1.8420001 1.674,-0.837 0.193,1.996 c 0.017,0.172 0.065,0.309 0.142,0.412 0.077,0.103 0.174,0.1810001 0.29,0.2320001 0.116,0.052 0.242,0.086 0.38,0.103 0.137,0.017 0.274,0.026 0.412,0.026 0.06,0 0.21,-0.006 0.451,-0.019 0.24,-0.013 0.493,-0.063 0.76,-0.149 -0.018,-0.4120001 -0.035,-0.8170001 -0.052,-1.2170001 -0.017,-0.399 -0.034,-0.766 -0.051,-1.101 -0.018,-0.335 -0.033,-0.627 -0.046,-0.876 -0.012,-0.249 -0.023,-0.438 -0.032,-0.567 -0.026,-0.274 -0.058,-0.538 -0.096,-0.792 -0.039,-0.253 -0.093,-0.483 -0.161,-0.689 l 1.417,-1.288 c 0.163,0.292 0.268,0.618 0.315,0.979 0.047,0.361 0.071,0.786 0.071,1.275 v 4.186 c 0,0.1290001 -0.026,0.2880001 -0.077,0.4770001 -0.052,0.189 -0.116,0.378 -0.194,0.567 z m 4.006,2.505 c 0.241,0.15 0.455,0.311 0.644,0.483 l 0.503,-0.876 c 0.317,0.129 0.609,0.281 0.876,0.457 0.266,0.176 0.497,0.359 0.695,0.548 l -0.876,1.443 c -0.172,-0.147 -0.388,-0.297 -0.65,-0.451 -0.262,-0.155 -0.509,-0.301 -0.741,-0.438 l -0.541,0.889 c -0.197,-0.155 -0.442,-0.318 -0.734,-0.49 -0.292,-0.172 -0.562,-0.331 -0.812,-0.477 l 0.851,-1.481 c 0.283,0.112 0.545,0.243 0.785,0.393 z m 0.567,1.694 c 0.275,0.12 0.524,0.253 0.747,0.399 0.223,0.146 0.425,0.305 0.606,0.477 l -0.76,1.223 c -0.198,-0.146 -0.411,-0.287 -0.638,-0.425 -0.228,-0.137 -0.453,-0.27 -0.676,-0.399 0.137,-0.232 0.259,-0.447 0.367,-0.644 0.107,-0.198 0.225,-0.408 0.354,-0.631 z"
     id="path10"
     inkscape:connector-curvature="0"
     style="fill:#3699FF;fill-rule:evenodd" />
</svg>
