<svg xmlns="http://www.w3.org/2000/svg" width="256.438" height="203.63" viewBox="0 0 256.438 203.63">
    <g id="group" transform="translate(0 -52.809)">
        <path id="Path_36" data-name="Path 36"
              d="M250.749,492a5.011,5.011,0,1,0,3.541,1.468A5.045,5.045,0,0,0,250.749,492Z"
              transform="translate(-122.66 -245.579)" fill="#0072ff"/>
        <path id="Path_37" data-name="Path 37"
              d="M229.672,216.444l-16.708-3.991v-6.627a33.055,33.055,0,0,0,15.45-27.957V159.2a33.037,33.037,0,0,0-57.79-21.9,44.155,44.155,0,0,0-42.354-31.866h0a44.155,44.155,0,0,0-42.38,31.954A33.036,33.036,0,0,0,28.024,159.2v18.665a33.054,33.054,0,0,0,15.45,27.957v6.627l-16.708,3.991A34.753,34.753,0,0,0,0,250.356v33.668a5.009,5.009,0,0,0,5.009,5.008h40.05v15.026a5.009,5.009,0,0,0,5.009,5.008h54.946a5.009,5.009,0,1,0,0-10.017H82.653V277.006a5.009,5.009,0,1,0-10.017,0v22.044H55.075v-22.6A36.465,36.465,0,0,1,83.131,240.88l24.634-5.9,15.85,36.06a5.008,5.008,0,0,0,4.584,2.993h0a5.008,5.008,0,0,0,4.585-2.993l15.834-36.007L173.18,240.9a36.46,36.46,0,0,1,28.08,35.578v5.589a5.017,5.017,0,0,0,0,3.918v13.067H183.8V277.006a5.009,5.009,0,1,0-10.017,0v22.044H149.256a5.009,5.009,0,1,0,0,10.017h57.013a5.009,5.009,0,0,0,5.009-5.008V289.032H251.43a5.009,5.009,0,0,0,5.009-5.008V250.356A34.754,34.754,0,0,0,229.672,216.444Zm-26.714.232-7.647,18.311-7.544-18.07a5,5,0,0,0,.035-.548c0-.047,0-.094,0-.14v-6.186a32.83,32.83,0,0,0,15.147-.008v6.37C202.947,216.5,202.954,216.586,202.959,216.676Zm-97.3,4.023a34.777,34.777,0,0,0-10.237-4.267l-16.766-4.017v-6.569a33.294,33.294,0,0,0,10.351-10.321,44.393,44.393,0,0,0,16.651,17.8ZM94.211,175.511V163.926H108.3a47.8,47.8,0,0,0,33.851-13.994L162.3,161.766v14.92a34.055,34.055,0,0,1-68.089-1.175Zm56.514,37.913a44.39,44.39,0,0,0,16.764-17.81,33.313,33.313,0,0,0,10.295,10.233v6.569l-16.766,4.017a34.787,34.787,0,0,0-10.294,4.3v-7.312Zm44.633-12.516a23.066,23.066,0,0,1-23.04-23.039v-.817c.018-.511.03-13.467.03-13.467a71.9,71.9,0,0,0,31.725,7.38H218.4v6.9A23.067,23.067,0,0,1,195.357,200.908Zm0-64.744A23.066,23.066,0,0,1,218.4,159.2v1.743H204.072a61.884,61.884,0,0,1-30.827-8.227A23.083,23.083,0,0,1,195.357,136.164ZM94.211,149.513a34.059,34.059,0,0,1,68.119,0v.653l-18.589-10.921a5.008,5.008,0,0,0-6.376,1.1,37.825,37.825,0,0,1-29.06,13.562H94.211ZM38.04,159.2a23.042,23.042,0,0,1,45.152-6.483,61.888,61.888,0,0,1-30.827,8.227H38.04V159.2Zm0,11.761H52.366a71.9,71.9,0,0,0,31.755-7.394v14.3a23.04,23.04,0,0,1-46.081,0Zm23.04,39.961a33.033,33.033,0,0,0,7.557-.882v6.045c-.006.094-.008.188-.008.283,0,.158.015.315.03.471l-7.578,18.145-7.606-18.221c.009-.12.016-.239.016-.361v-6.37A33.032,33.032,0,0,0,61.081,210.925ZM45.058,276.452v2.563H30.051V256.763a5.009,5.009,0,0,0-10.017,0v22.253H10.017V250.356a24.769,24.769,0,0,1,19.076-24.169l15.876-3.793,10.362,24.82A46.5,46.5,0,0,0,45.058,276.452ZM80.8,231.139a47.077,47.077,0,0,0-8.467,2.911l4.878-11.681,15.879,3.805a24.821,24.821,0,0,1,3.593,1.159Zm47.4,25.437-12.526-28.5v-10.33a44.111,44.111,0,0,0,25.033.047v10.338Zm31.467-29.205a24.86,24.86,0,0,1,3.685-1.2l15.84-3.8,4.9,11.733a47.082,47.082,0,0,0-8.584-2.956Zm86.754,51.644H236.4V256.763a5.009,5.009,0,0,0-10.017,0v22.253H211.277v-2.539a46.494,46.494,0,0,0-10.241-29.2l10.394-24.889,15.915,3.8a24.769,24.769,0,0,1,19.076,24.169Z"
              transform="translate(0 -52.628)" fill="#0072ff"/>
    </g>
</svg>
